<svg width="100" height="45" viewBox="0 0 100 45" fill="none" xmlns="http://www.w3.org/2000/svg">
<path d="M83.9982 25.3546C83.8445 25.1779 83.7139 24.9801 83.5718 24.7918C83.6063 24.7054 83.639 24.619 83.6736 24.5306C84.0039 24.5306 84.3362 24.5229 84.6666 24.5325C87.1981 24.5978 89.6816 24.2694 92.0883 23.48C95.3977 22.3948 98.0522 20.5047 99.3045 17.0628C100.225 14.5313 100.125 11.9191 99.6214 9.32607C98.5881 4.00179 94.6486 0.333191 89.2898 0.0758124C85.4099 -0.110499 81.5089 0.148801 77.6175 0.22371C77.0701 0.233313 76.7647 0.55984 76.757 1.12838C76.7474 1.85249 76.7493 2.57469 76.7474 3.2988C76.7455 4.83347 76.8377 4.92759 78.3243 4.92759C81.578 4.92567 84.8337 4.90646 88.0874 4.93335C90.6766 4.95448 94.0532 6.41424 95.1903 9.84467C96.0258 12.3647 96.1756 14.8847 94.3375 17.0532C92.6146 19.0892 90.2386 19.8767 87.6821 19.9554C84.4803 20.0534 81.2727 19.9785 78.0689 19.9804C76.9395 19.9804 76.757 20.1667 76.7512 21.3345C76.7455 22.1835 76.7013 23.0363 76.7781 23.8776C76.8185 24.3116 76.9894 24.813 77.2718 25.1299C78.6873 26.7183 80.1721 28.2434 81.6088 29.8145C85.723 34.3091 90.2233 39.1877 94.3029 43.7149C94.9579 44.4429 95.6378 44.804 96.6078 44.7002C97.2416 44.633 97.8889 44.681 98.5285 44.6868C98.9799 44.6906 99.4505 44.7156 99.6637 44.2009C99.875 43.6938 99.6291 43.3077 99.2987 42.9274C94.3221 37.1998 88.969 31.0861 83.9982 25.3546Z" fill="#151D2A"/>
<path d="M72.0723 0.0468821C64.9713 0.0699309 57.8704 0.0660892 50.7675 0.0526441C50.2796 0.0526441 50.1087 0.22167 50.1144 0.696091C50.1279 1.86774 50.1394 3.61753 50.1068 4.78918C50.0876 5.44799 50.2777 5.69 50.9865 5.68424C56.2128 5.65159 61.441 5.66695 66.6693 5.66695C67.7468 5.66695 67.7506 5.66887 67.7506 6.78482C67.7506 15.3667 67.7506 23.9504 67.7487 32.5323C67.7487 36.3238 67.7583 40.1172 67.7314 43.9088C67.7276 44.5695 67.935 44.7885 68.5823 44.7597C69.6406 44.7116 70.7028 44.7443 71.763 44.7424C72.7273 44.7405 72.7273 44.7385 72.7273 43.7686C72.7273 36.7579 72.7273 29.7472 72.7273 22.7365C72.7273 15.6509 72.7253 7.98912 72.7292 0.903528C72.7311 0.431027 72.7714 0.0449614 72.0723 0.0468821Z" fill="#151D2A"/>
<path d="M5.1616 8.03709C0.298297 13.9722 -1.01549 20.7447 0.745827 28.1337C0.839943 28.1645 0.93598 28.1952 1.0301 28.224C8.87053 18.8873 16.711 9.55063 24.609 0.146715C17.8749 -0.65039 10.2919 1.7755 5.1616 8.03709Z" fill="#151D2A"/>
<path d="M22.6323 44.6251C30.175 44.4888 36.1485 41.1832 40.7756 34.9619C29.1782 35.9031 17.8382 36.8212 6.21387 37.7643C10.9101 42.4182 16.3189 44.7385 22.6323 44.6251Z" fill="#151D2A"/>
<path d="M34.814 3.57715C23.6738 12.7659 12.7083 21.8145 1.72168 30.8765C1.96369 31.4259 2.18074 31.9157 2.46308 32.5533C14.9459 24.4671 27.327 16.448 39.9462 8.27526C38.1619 6.64456 36.4889 5.11182 34.814 3.57715Z" fill="#151D2A"/>
<path d="M44.3813 17.6699C30.6384 23.3303 17.1837 28.8736 3.63672 34.4533C3.98245 35.0795 4.17452 35.5212 5.03501 35.2773C14.2795 32.6651 23.5394 30.1086 32.7954 27.5406C36.4563 26.5245 40.1211 25.5276 43.7743 24.4847C44.1028 24.3906 44.6021 24.0256 44.6002 23.7894C44.5849 21.8033 44.4715 19.8192 44.3813 17.6699Z" fill="#151D2A"/>
</svg>
