<svg width="113" height="55" viewBox="0 0 113 55" fill="none" xmlns="http://www.w3.org/2000/svg">
<g clip-path="url(#clip0_121_73)">
<path d="M94.1983 31.055C94.026 30.8438 93.8796 30.6073 93.7202 30.3823C93.7589 30.279 93.7956 30.1757 93.8343 30.0701C94.2048 30.0701 94.5774 30.0609 94.9479 30.0701C97.7868 30.1482 100.572 29.7556 103.271 28.8121C106.982 27.5151 109.959 25.2562 111.363 21.1424C112.395 18.1167 112.283 14.9946 111.719 11.8955C110.56 5.53198 106.142 1.1473 100.132 0.839681C95.7815 0.617003 91.4068 0.926915 87.043 1.01645C86.4291 1.02792 86.0866 1.41818 86.078 2.09769C86.0672 2.96315 86.0694 3.82631 86.0672 4.69177C86.0651 6.52599 86.1685 6.63848 87.8356 6.63848C91.4844 6.63848 95.1353 6.61323 98.7841 6.64537C101.688 6.67062 105.474 8.41531 106.749 12.5153C107.686 15.5272 107.854 18.5391 105.793 21.1309C103.861 23.5643 101.197 24.5055 98.3296 24.5996C94.739 24.7167 91.1419 24.6272 87.5491 24.6294C86.2826 24.6294 86.078 24.8521 86.0715 26.2479C86.0651 27.2626 86.0155 28.2818 86.1017 29.2873C86.1469 29.8061 86.3386 30.4053 86.6552 30.7841C88.2427 32.6826 89.9077 34.5053 91.5189 36.3831C96.1326 41.755 101.179 47.5859 105.754 52.9967C106.489 53.8668 107.251 54.2984 108.339 54.1744C109.05 54.094 109.776 54.1514 110.493 54.1583C110.999 54.1629 111.527 54.1928 111.766 53.5775C112.003 52.9715 111.727 52.5101 111.357 52.0555C105.776 45.2145 99.7706 37.9075 94.1983 31.0573V31.055Z" fill="#B78B4B"/>
<path d="M80.8224 0.807626C72.8592 0.835173 64.8961 0.830582 56.9308 0.814513C56.3837 0.814513 56.192 1.01653 56.1985 1.58355C56.2136 2.9839 56.2265 5.07523 56.1899 6.47557C56.1683 7.26298 56.3816 7.55223 57.1764 7.54534C63.0373 7.50632 68.9003 7.52468 74.7633 7.52468C75.9717 7.52468 75.976 7.52698 75.976 8.86075C75.976 19.1177 75.976 29.3769 75.976 39.6339C75.976 44.1655 75.9868 48.6994 75.9566 53.231C75.9523 54.0207 76.1849 54.2824 76.9108 54.2479C78.0976 54.1905 79.2887 54.2296 80.4777 54.2273C81.1986 54.2257 81.559 53.8378 81.559 53.0634C81.559 44.6843 81.559 36.3052 81.559 27.9261C81.559 19.4574 81.559 10.3001 81.5612 1.83148C81.5612 1.26905 81.6064 0.80533 80.8224 0.807626V0.807626Z" fill="#B78B4B"/>
<path d="M5.7875 10.3547C0.333721 17.4483 -1.13958 25.5427 0.835589 34.3741C0.941132 34.4108 1.04883 34.4475 1.15437 34.4819C9.94676 23.3228 18.7392 12.1637 27.5962 0.924216C20.0444 -0.0261807 11.5407 2.87092 5.7875 10.3547Z" fill="#B78B4B"/>
<path d="M25.3799 54.0845C33.8384 53.9216 40.5372 49.9707 45.726 42.5352C32.7205 43.66 20.0036 44.7573 6.96799 45.8845C12.2344 51.4468 18.2977 54.22 25.3799 54.0845Z" fill="#B78B4B"/>
<path d="M39.0402 5.02637C26.5473 16.0087 14.2483 26.8235 1.92993 37.6544C2.20133 38.3109 2.44472 38.8963 2.76135 39.6585C16.7598 29.9961 30.6441 20.4118 44.7934 10.6438C42.7945 8.69251 40.9184 6.86059 39.0402 5.02637V5.02637Z" fill="#B78B4B"/>
<path d="M49.769 21.8672C34.3575 28.6325 19.2691 35.2577 4.07739 41.9265C4.4651 42.6749 4.6805 43.2029 5.64546 42.9114C16.0124 39.7893 26.3965 36.7338 36.7764 33.6645C40.8818 32.4501 44.9915 31.2587 49.0883 30.0121C49.4567 29.8996 50.0167 29.4635 50.0145 29.1811C49.9973 26.8097 49.8702 24.4383 49.7668 21.8695L49.769 21.8672Z" fill="#B78B4B"/>
</g>
<defs>
<clipPath id="clip0_121_73">
<rect width="112.143" height="53.5" fill="white" transform="translate(0 0.75)"/>
</clipPath>
</defs>
</svg>
