<svg width="904" height="266" viewBox="0 0 904 266" fill="none" xmlns="http://www.w3.org/2000/svg">
<rect width="904" height="266" fill="white"/>
<g filter="url(#filter0_d_1_4)">
<rect x="395" y="83" width="107" height="107" rx="8" fill="#FFC413"/>
</g>
<g filter="url(#filter1_d_1_4)">
<path d="M173.673 170V114.96H212.313V127.12H193.113V136.88H210.633V146.96H193.113V157.44H212.313V170H173.673ZM251.533 170V114.96H267.533L289.133 144.16V114.96H303.853V170H287.853L266.253 142V170H251.533ZM370.707 171.28C364.947 171.28 359.933 170.107 355.667 167.76C351.453 165.413 348.173 162.16 345.827 158C343.48 153.84 342.307 149.04 342.307 143.6C342.307 137.787 343.533 132.64 345.987 128.16C348.44 123.68 351.88 120.16 356.307 117.6C360.733 115.04 365.88 113.76 371.747 113.76C378.147 113.76 383.24 115.04 387.027 117.6L384.627 130.16C381.267 128.72 377.773 128 374.147 128C369.773 128 366.333 129.307 363.827 131.92C361.32 134.533 360.067 138.16 360.067 142.8C360.067 147.493 361.187 151.147 363.427 153.76C365.72 156.373 368.627 157.68 372.147 157.68C373.427 157.68 374.493 157.573 375.347 157.36V143.68L389.187 142.08V167.12C386.147 168.507 383.053 169.547 379.907 170.24C376.76 170.933 373.693 171.28 370.707 171.28ZM429.127 170V114.96H467.767V127.12H448.567V136.88H466.087V146.96H448.567V157.44H467.767V170H429.127ZM533.306 171.28C527.546 171.28 522.506 170.133 518.186 167.84C513.919 165.493 510.586 162.213 508.186 158C505.839 153.787 504.666 148.88 504.666 143.28C504.666 137.52 505.893 132.427 508.346 128C510.853 123.573 514.266 120.107 518.586 117.6C522.959 115.04 527.973 113.76 533.626 113.76C539.919 113.76 544.853 114.987 548.426 117.44L546.266 130.16C544.719 129.413 543.093 128.88 541.386 128.56C539.733 128.187 538.159 128 536.666 128C532.293 128 528.853 129.307 526.346 131.92C523.839 134.533 522.586 138.16 522.586 142.8C522.586 147.173 523.786 150.613 526.186 153.12C528.639 155.573 532.026 156.8 536.346 156.8C538.053 156.8 539.599 156.64 540.986 156.32C542.426 156 544.186 155.413 546.266 154.56L548.506 167.2C543.866 169.92 538.799 171.28 533.306 171.28ZM611.106 171.28C605.293 171.28 600.173 170.053 595.746 167.6C591.319 165.147 587.853 161.76 585.346 157.44C582.893 153.12 581.666 148.16 581.666 142.56C581.666 136.907 582.893 131.92 585.346 127.6C587.853 123.28 591.319 119.893 595.746 117.44C600.173 114.987 605.293 113.76 611.106 113.76C616.919 113.76 622.039 114.987 626.466 117.44C630.893 119.84 634.333 123.2 636.786 127.52C639.293 131.84 640.546 136.853 640.546 142.56C640.546 148.16 639.293 153.12 636.786 157.44C634.333 161.76 630.893 165.147 626.466 167.6C622.039 170.053 616.919 171.28 611.106 171.28ZM611.106 156.72C614.466 156.72 617.213 155.413 619.346 152.8C621.533 150.187 622.626 146.747 622.626 142.48C622.626 139.6 622.119 137.067 621.106 134.88C620.146 132.693 618.786 130.987 617.026 129.76C615.319 128.48 613.319 127.84 611.026 127.84C607.666 127.84 604.919 129.2 602.786 131.92C600.653 134.587 599.586 138.107 599.586 142.48C599.586 146.747 600.653 150.187 602.786 152.8C604.919 155.413 607.693 156.72 611.106 156.72ZM679.033 170V114.96H695.033L716.633 144.16V114.96H731.353V170H715.353L693.753 142V170H679.033Z" fill="black"/>
</g>
<defs>
<filter id="filter0_d_1_4" x="391" y="83" width="115" height="115" filterUnits="userSpaceOnUse" color-interpolation-filters="sRGB">
<feFlood flood-opacity="0" result="BackgroundImageFix"/>
<feColorMatrix in="SourceAlpha" type="matrix" values="0 0 0 0 0 0 0 0 0 0 0 0 0 0 0 0 0 0 127 0" result="hardAlpha"/>
<feOffset dy="4"/>
<feGaussianBlur stdDeviation="2"/>
<feComposite in2="hardAlpha" operator="out"/>
<feColorMatrix type="matrix" values="0 0 0 0 0 0 0 0 0 0 0 0 0 0 0 0 0 0 0.7 0"/>
<feBlend mode="normal" in2="BackgroundImageFix" result="effect1_dropShadow_1_4"/>
<feBlend mode="normal" in="SourceGraphic" in2="effect1_dropShadow_1_4" result="shape"/>
</filter>
<filter id="filter1_d_1_4" x="169.673" y="113.76" width="565.679" height="65.52" filterUnits="userSpaceOnUse" color-interpolation-filters="sRGB">
<feFlood flood-opacity="0" result="BackgroundImageFix"/>
<feColorMatrix in="SourceAlpha" type="matrix" values="0 0 0 0 0 0 0 0 0 0 0 0 0 0 0 0 0 0 127 0" result="hardAlpha"/>
<feOffset dy="4"/>
<feGaussianBlur stdDeviation="2"/>
<feComposite in2="hardAlpha" operator="out"/>
<feColorMatrix type="matrix" values="0 0 0 0 0 0 0 0 0 0 0 0 0 0 0 0 0 0 0.7 0"/>
<feBlend mode="normal" in2="BackgroundImageFix" result="effect1_dropShadow_1_4"/>
<feBlend mode="normal" in="SourceGraphic" in2="effect1_dropShadow_1_4" result="shape"/>
</filter>
</defs>
</svg>
